<?xml version="1.0" encoding="UTF-8"?>
<svg width="29px" height="24px" viewBox="0 0 29 24" version="1.1" xmlns="http://www.w3.org/2000/svg" xmlns:xlink="http://www.w3.org/1999/xlink">
    <!-- Generator: Sketch 55.2 (78181) - https://sketchapp.com -->
            <path d="M28.001,3.64962755 C26.9706895,4.10648603 25.8637073,4.41530574 24.7017096,4.55415703 C25.8876604,3.84322092 26.7985336,2.71748093 27.2275015,1.37599918 C26.1174021,2.03438071 24.8881389,2.51240321 23.5795789,2.76998083 C22.5317685,1.6535377 21.038748,0.956 19.3864778,0.956 C16.2140074,0.956 13.6420046,3.52789341 13.6420046,6.70030909 C13.6420046,7.1505504 13.6928092,7.58897923 13.7907543,8.0094706 C9.01654489,7.76983044 4.78368597,5.48291303 1.9504415,2.00736513 C1.4559581,2.85578535 1.17262271,3.84256467 1.17262271,4.89535168 C1.17262271,6.88837904 2.18674573,8.6466881 3.7281646,9.67683453 C2.78650237,9.64697521 1.90073066,9.38857728 1.12630249,8.95829687 C1.12575562,8.98224995 1.12575562,9.0063124 1.12575562,9.03053892 C1.12575562,11.8137991 3.10593144,14.1354977 5.73377005,14.6633404 C5.25181006,14.7945355 4.74425636,14.8649728 4.22035113,14.8649728 C3.85017217,14.8649728 3.49032912,14.8288792 3.1395095,14.761723 C3.87057057,17.043828 5.99200392,18.7049028 8.50576464,18.7511137 C6.53975285,20.2919857 4.06279675,21.2102417 1.3713567,21.2102417 C0.907662292,21.2102417 0.450420997,21.1831167 0.001,21.1297965 C2.54319816,22.7598637 5.56276257,23.7108774 8.80681874,23.7108774 C19.3730247,23.7108774 25.1511306,14.9575039 25.1511306,7.36634685 C25.1511306,7.11730047 25.1454431,6.86956658 25.1344509,6.62314518 C26.2569643,5.81327958 27.2308921,4.8015628 28.001,3.64962755 Z" id="Path"></path>
</svg>
